<svg width="55" height="55" viewBox="0 0 55 55" fill="none" xmlns="http://www.w3.org/2000/svg">
<g clip-path="url(#clip0)">
<path d="M27.1241 27.378C27.5006 27.5883 27.9769 27.4535 28.1872 27.0771C28.3976 26.7007 28.2628 26.2244 27.8863 26.014C27.5099 25.8037 27.0336 25.9385 26.8232 26.3149C26.6129 26.6913 26.7477 27.1676 27.1241 27.378Z" fill="#ffffff"/>
<path d="M44.9039 30.1537L40.8708 27.9001L39.4364 15.898C39.4127 14.6315 38.3751 13.6056 37.0983 13.6007C35.8031 13.5975 34.7521 14.6438 34.749 15.9394C34.7491 15.9761 34.7514 16.0127 34.7565 16.0492L36.0311 25.1956L24.3147 18.6485L32.7723 14.9404C32.8058 14.9255 32.8384 14.9085 32.8698 14.8893C33.9689 14.2093 34.3137 12.7669 33.6298 11.6618C32.958 10.5792 31.5406 10.2329 30.449 10.8751L19.4749 15.944L15.4418 13.6903C13.9377 12.8498 12.03 13.3898 11.1895 14.8939C10.5266 16.0802 10.7193 17.5433 11.5996 18.5148C11.6652 18.6689 11.7795 18.8034 11.9367 18.8913C11.9681 18.9088 11.9967 18.9272 12.0252 18.9488C12.2967 19.1522 12.4048 19.5049 12.2953 19.8261L7.48258 33.8871C7.11592 34.9592 7.56776 36.1388 8.55718 36.6917L28.9227 48.072C29.9121 48.6249 31.1535 48.3914 31.8746 47.517L41.3272 36.0495C41.5435 35.7876 41.9008 35.695 42.2175 35.8202C42.2497 35.8326 42.2803 35.8473 42.3115 35.8647C42.4697 35.9531 42.6455 35.9801 42.8118 35.9541C44.1027 36.1927 45.4458 35.5903 46.1075 34.4061C46.948 32.902 46.408 30.9942 44.9039 30.1537ZM36.3129 15.897C36.3374 15.4873 36.6779 15.162 37.0932 15.1633C37.5255 15.1647 37.8757 15.5153 37.8744 15.9449C37.874 15.9768 37.8761 16.0088 37.8798 16.0402L39.1845 26.9577L37.7417 26.1515L36.3129 15.897ZM31.1429 12.276C31.1716 12.2627 31.1992 12.2477 31.2262 12.2313C31.5921 12.0051 32.0746 12.1195 32.3017 12.4851C32.5207 12.8389 32.4229 13.2992 32.0862 13.5351L22.6041 17.6926L21.1612 16.8863L31.1429 12.276ZM42.6173 34.2457L30.6142 27.5384C30.2376 27.3279 29.7617 27.4626 29.5512 27.8393C29.3407 28.216 29.4792 28.685 29.8559 28.8954L40.3858 34.7795C40.2932 34.8614 40.206 34.9511 40.1256 35.0487L30.6688 46.523C30.4286 46.8146 30.0147 46.8923 29.6848 46.708L9.31938 35.3277C8.98931 35.1433 8.83878 34.7501 8.96081 34.3929L13.7735 20.3319C13.8145 20.2122 13.8452 20.091 13.8663 19.9695L24.3961 25.8536C24.7728 26.0641 25.2487 25.9294 25.4592 25.5527C25.6697 25.176 25.535 24.7001 25.1583 24.4896L13.1552 17.7823C12.3968 17.3585 12.1366 16.402 12.5534 15.6561C12.9737 14.904 13.9276 14.6341 14.6796 15.0543L44.1417 31.5177C44.8938 31.938 45.1637 32.8919 44.7435 33.6439C44.3203 34.4013 43.3616 34.6616 42.6173 34.2457Z" fill="#ffffff"/>
<path d="M25.9808 29.4239C24.8526 28.7935 23.422 29.1984 22.7915 30.3266L19.7427 35.7826C19.1123 36.9108 19.5172 38.3414 20.6454 38.9719C21.7736 39.6023 23.2042 39.1974 23.8347 38.0692L26.8835 32.6132C27.5151 31.4829 27.1111 30.0556 25.9808 29.4239ZM22.4707 37.307C22.2605 37.6831 21.7838 37.8181 21.4076 37.6079C21.0314 37.3977 20.8965 36.9209 21.1067 36.5448L24.1555 31.0888C24.3657 30.7127 24.8424 30.5777 25.2186 30.7879C25.595 30.9983 25.7298 31.4746 25.5195 31.851L22.4707 37.307Z" fill="#ffffff"/>
<path d="M27.4654 42.7829C28.5936 43.4133 30.0242 43.0084 30.6546 41.8802L33.7034 36.4242C34.3351 35.2939 33.9311 33.8666 32.8007 33.2349C31.6725 32.6045 30.2419 33.0094 29.6115 34.1376L26.5627 39.5936C25.9322 40.7218 26.3371 42.1524 27.4654 42.7829ZM30.9754 34.8998C31.1856 34.5237 31.6624 34.3887 32.0385 34.5989C32.415 34.8093 32.5498 35.2856 32.3394 35.662L29.2906 41.118C29.0804 41.4941 28.6037 41.6291 28.2276 41.4189C27.8514 41.2087 27.7165 40.7319 27.9267 40.3558L30.9754 34.8998Z" fill="#ffffff"/>
<path d="M19.1609 25.613C18.0327 24.9825 16.6021 25.3875 15.9716 26.5157L12.9228 31.9716C12.2924 33.0999 12.6973 34.5305 13.8255 35.1609C14.9537 35.7914 16.3844 35.3864 17.0148 34.2582L20.0636 28.8023C20.6952 27.6719 20.2913 26.2446 19.1609 25.613ZM15.6508 33.496C15.4406 33.8722 14.9639 34.0071 14.5877 33.7969C14.2116 33.5867 14.0766 33.11 14.2868 32.7338L17.3356 27.2779C17.5458 26.9017 18.0225 26.7668 18.3987 26.977C18.7751 27.1873 18.9101 27.6634 18.6996 28.0401L15.6508 33.496Z" fill="#ffffff"/>
</g>
<defs>
<clipPath id="clip0">
<rect x="19.5122" width="40" height="40" transform="rotate(29.1965 19.5122 0)" fill="white"/>
</clipPath>
</defs>
</svg>
