<svg width="24" height="24" viewBox="0 0 24 24" fill="none" xmlns="http://www.w3.org/2000/svg">
<path d="M18.8711 13.7812C16.0494 13.7812 13.7617 16.0689 13.7617 18.8906C13.7617 21.7123 16.0494 24 18.8711 24C21.6928 24 23.9805 21.7123 23.9805 18.8906C23.9805 16.0689 21.6928 13.7812 18.8711 13.7812ZM20.6453 19.6705C20.9199 19.9451 20.9199 20.3902 20.6453 20.6648C20.3708 20.9393 19.9256 20.9393 19.651 20.6648L18.8711 19.8849L18.0912 20.6648C17.8167 20.9393 17.3715 20.9393 17.097 20.6648C16.8224 20.3902 16.8224 19.9451 17.097 19.6705L17.8768 18.8906L17.0969 18.1107C16.8224 17.8362 16.8224 17.391 17.0969 17.1165C17.3715 16.8419 17.8166 16.8419 18.0912 17.1165L18.8711 17.8964L19.651 17.1164C19.9255 16.8419 20.3707 16.8419 20.6453 17.1164C20.9198 17.391 20.9198 17.8361 20.6453 18.1107L19.8654 18.8906L20.6453 19.6705Z" fill="#DD0C0C"/>
<path d="M22.6087 7.82812H21.4623L16.0854 2.67792C16.4062 1.98047 16.2794 1.12781 15.7048 0.553172C14.9672 -0.184359 13.7717 -0.184359 13.0342 0.553172C12.2967 1.2907 12.2967 2.4862 13.0342 3.22373C13.5837 3.7732 14.3873 3.91322 15.0665 3.64392L19.4348 7.82812H4.57744L8.94572 3.64402C9.16139 3.72975 9.39656 3.77691 9.64275 3.77691C10.6856 3.77691 11.5312 2.93128 11.5312 1.88845C11.5312 0.845625 10.6856 0 9.6428 0C8.59997 0 7.75434 0.845625 7.75434 1.88845C7.75434 2.17027 7.81617 2.43764 7.92689 2.67783L2.54991 7.82812H1.39125C0.624656 7.82812 0 8.45273 0 9.21933V10.5619C0 11.3285 0.624656 11.9531 1.39125 11.9531H22.6087C23.3753 11.9531 24 11.3285 24 10.5619V9.21933C24 8.45273 23.3753 7.82812 22.6087 7.82812Z" fill="#DD0C0C"/>
<path d="M15.4519 13.3594H2.32104C2.90112 15.8941 3.48308 18.4283 4.06465 20.9625C4.2837 21.917 5.10978 22.5938 6.0852 22.5938H13.532C13.273 22.2172 13.051 21.8099 12.8719 21.3773C11.6479 18.4224 12.7608 15.0255 15.4519 13.3594ZM9.28132 14.461C9.66861 14.461 9.98445 14.7768 9.98445 15.1641C9.98445 15.5514 9.66861 15.8672 9.28132 15.8672C8.89404 15.8672 8.5782 15.5513 8.5782 15.1641C8.57815 14.7768 8.89404 14.461 9.28132 14.461ZM5.06258 18.6797C4.67529 18.6797 4.35945 18.3638 4.35945 17.9766C4.35945 17.5893 4.67534 17.2735 5.06258 17.2735C5.44981 17.2735 5.7657 17.5893 5.7657 17.9766C5.7657 18.3639 5.44986 18.6797 5.06258 18.6797ZM6.46883 21.4922C6.08154 21.4922 5.7657 21.1763 5.7657 20.7891C5.7657 20.4018 6.08159 20.086 6.46883 20.086C6.85606 20.086 7.17195 20.4018 7.17195 20.7891C7.17195 21.1763 6.85606 21.4922 6.46883 21.4922ZM6.46883 15.8672C6.08154 15.8672 5.7657 15.5513 5.7657 15.1641C5.7657 14.7768 6.08159 14.461 6.46883 14.461C6.85606 14.461 7.17195 14.7768 7.17195 15.1641C7.17195 15.5513 6.85606 15.8672 6.46883 15.8672ZM7.87517 18.6797C7.48789 18.6797 7.17204 18.3638 7.17204 17.9766C7.17204 17.5893 7.48793 17.2735 7.87517 17.2735C8.26245 17.2735 8.57829 17.5893 8.57829 17.9766C8.57829 18.3639 8.26245 18.6797 7.87517 18.6797ZM9.28132 21.4922C8.89404 21.4922 8.5782 21.1763 8.5782 20.7891C8.5782 20.4018 8.89409 20.086 9.28132 20.086C9.66861 20.086 9.98445 20.4018 9.98445 20.7891C9.98445 21.1763 9.66856 21.4922 9.28132 21.4922ZM10.6876 18.6797C10.3003 18.6797 9.98445 18.3638 9.98445 17.9766C9.98445 17.5893 10.3003 17.2735 10.6876 17.2735C11.0749 17.2735 11.3907 17.5893 11.3907 17.9766C11.3907 18.3639 11.0749 18.6797 10.6876 18.6797ZM11.3906 15.1641C11.3906 14.7768 11.7064 14.461 12.0937 14.461C12.481 14.461 12.7968 14.7768 12.7968 15.1641C12.7968 15.5514 12.481 15.8672 12.0937 15.8672C11.7064 15.8672 11.3906 15.5513 11.3906 15.1641Z" fill="#DD0C0C"/>
</svg>
