<svg width="24" height="24" viewBox="0 0 24 24" fill="none" xmlns="http://www.w3.org/2000/svg">
<g clip-path="url(#clip0)">
<path d="M21.75 0H5.25001C4.83544 0 4.5 0.335442 4.5 0.750008V2.99999H6.00002V1.50002H21V22.5H6.00002V21H4.5V23.25C4.5 23.6646 4.83544 24 5.25001 24H21.75C22.1646 24 22.5 23.6646 22.5 23.25V0.750008C22.5 0.335442 22.1645 0 21.75 0V0Z" fill="#2E2E2E"/>
<path d="M8.90916 15.9697L9.9697 17.0303L15 12L9.9697 6.96973L8.90916 8.03027L12.1289 11.25H1.5V12.75H12.1289L8.90916 15.9697Z" fill="#2E2E2E"/>
</g>
<defs>
<clipPath id="clip0">
<rect width="24" height="24" fill="white"/>
</clipPath>
</defs>
</svg>
